<mxfile host="www.draw.io" modified="2019-10-24T12:28:18.814Z" agent="Mozilla/5.0 (Windows NT 10.0; Win64; x64) AppleWebKit/537.36 (KHTML, like Gecko) Chrome/77.0.3865.120 Safari/537.36" etag="_g9h0jOCoHLvVSIjsX9P" version="12.1.4" type="github" pages="1">
  <diagram id="s3ZhuLAL3e3Yq09P7WTn" name="Page-1">
    <mxGraphModel dx="712" dy="398" grid="1" gridSize="10" guides="1" tooltips="1" connect="1" arrows="1" fold="1" page="1" pageScale="1" pageWidth="827" pageHeight="1169" math="0" shadow="0">
      <root>
        <mxCell id="0"/>
        <mxCell id="1" parent="0"/>
        <mxCell id="lakhA8L7aZ9W4AZ5UJp5-39" value="" style="ellipse;html=1;shape=startState;fillColor=#000000;strokeColor=#ff0000;" vertex="1" parent="1">
          <mxGeometry x="40" y="995" width="30" height="30" as="geometry"/>
        </mxCell>
        <mxCell id="lakhA8L7aZ9W4AZ5UJp5-40" value="" style="edgeStyle=orthogonalEdgeStyle;html=1;verticalAlign=bottom;endArrow=open;endSize=8;strokeColor=#ff0000;entryX=0;entryY=0.5;entryDx=0;entryDy=0;" edge="1" parent="1" source="lakhA8L7aZ9W4AZ5UJp5-39" target="lakhA8L7aZ9W4AZ5UJp5-41">
          <mxGeometry relative="1" as="geometry">
            <mxPoint x="135" y="1010" as="targetPoint"/>
          </mxGeometry>
        </mxCell>
        <mxCell id="lakhA8L7aZ9W4AZ5UJp5-41" value="Aguardando dados de login" style="rounded=1;whiteSpace=wrap;html=1;arcSize=40;fontColor=#000000;fillColor=#ffffc0;strokeColor=#ff0000;" vertex="1" parent="1">
          <mxGeometry x="140" y="990" width="120" height="40" as="geometry"/>
        </mxCell>
        <mxCell id="lakhA8L7aZ9W4AZ5UJp5-42" value="" style="edgeStyle=orthogonalEdgeStyle;html=1;verticalAlign=bottom;endArrow=open;endSize=8;strokeColor=#ff0000;entryX=0;entryY=0.5;entryDx=0;entryDy=0;" edge="1" parent="1" source="lakhA8L7aZ9W4AZ5UJp5-41" target="lakhA8L7aZ9W4AZ5UJp5-43">
          <mxGeometry relative="1" as="geometry">
            <mxPoint x="380" y="1010" as="targetPoint"/>
          </mxGeometry>
        </mxCell>
        <mxCell id="lakhA8L7aZ9W4AZ5UJp5-43" value="Dados corretos" style="rhombus;whiteSpace=wrap;html=1;fillColor=#ffffc0;strokeColor=#ff0000;" vertex="1" parent="1">
          <mxGeometry x="390" y="990" width="80" height="40" as="geometry"/>
        </mxCell>
        <mxCell id="lakhA8L7aZ9W4AZ5UJp5-44" value="no" style="edgeStyle=orthogonalEdgeStyle;html=1;align=left;verticalAlign=bottom;endArrow=open;endSize=8;strokeColor=#ff0000;entryX=0;entryY=0.5;entryDx=0;entryDy=0;" edge="1" parent="1" source="lakhA8L7aZ9W4AZ5UJp5-43" target="lakhA8L7aZ9W4AZ5UJp5-46">
          <mxGeometry x="-1" relative="1" as="geometry">
            <mxPoint x="560" y="1010" as="targetPoint"/>
          </mxGeometry>
        </mxCell>
        <mxCell id="lakhA8L7aZ9W4AZ5UJp5-45" value="yes" style="edgeStyle=orthogonalEdgeStyle;html=1;align=left;verticalAlign=top;endArrow=open;endSize=8;strokeColor=#ff0000;entryX=0.5;entryY=0;entryDx=0;entryDy=0;" edge="1" parent="1" source="lakhA8L7aZ9W4AZ5UJp5-43" target="lakhA8L7aZ9W4AZ5UJp5-49">
          <mxGeometry x="-1" relative="1" as="geometry">
            <mxPoint x="420" y="1100" as="targetPoint"/>
            <Array as="points">
              <mxPoint x="430" y="1090"/>
              <mxPoint x="430" y="1090"/>
            </Array>
          </mxGeometry>
        </mxCell>
        <mxCell id="lakhA8L7aZ9W4AZ5UJp5-46" value="Dados invalidos" style="rounded=1;whiteSpace=wrap;html=1;arcSize=40;fontColor=#000000;fillColor=#ffffc0;strokeColor=#ff0000;" vertex="1" parent="1">
          <mxGeometry x="520" y="990" width="120" height="40" as="geometry"/>
        </mxCell>
        <mxCell id="lakhA8L7aZ9W4AZ5UJp5-47" value="" style="edgeStyle=orthogonalEdgeStyle;html=1;verticalAlign=bottom;endArrow=open;endSize=8;strokeColor=#ff0000;entryX=0.5;entryY=0;entryDx=0;entryDy=0;exitX=0.5;exitY=0;exitDx=0;exitDy=0;" edge="1" parent="1" source="lakhA8L7aZ9W4AZ5UJp5-46" target="lakhA8L7aZ9W4AZ5UJp5-41">
          <mxGeometry relative="1" as="geometry">
            <mxPoint x="189" y="960" as="targetPoint"/>
            <Array as="points">
              <mxPoint x="580" y="960"/>
              <mxPoint x="200" y="960"/>
            </Array>
          </mxGeometry>
        </mxCell>
        <mxCell id="lakhA8L7aZ9W4AZ5UJp5-48" value="retorna para preencher os dados corretamente" style="text;html=1;resizable=0;points=[];autosize=1;align=left;verticalAlign=top;spacingTop=-4;" vertex="1" parent="1">
          <mxGeometry x="290" y="940" width="260" height="20" as="geometry"/>
        </mxCell>
        <mxCell id="lakhA8L7aZ9W4AZ5UJp5-49" value="Entrou no aplicativo" style="rounded=1;whiteSpace=wrap;html=1;arcSize=40;fontColor=#000000;fillColor=#ffffc0;strokeColor=#ff0000;" vertex="1" parent="1">
          <mxGeometry x="370" y="1100" width="120" height="40" as="geometry"/>
        </mxCell>
        <mxCell id="lakhA8L7aZ9W4AZ5UJp5-50" value="" style="edgeStyle=orthogonalEdgeStyle;html=1;verticalAlign=bottom;endArrow=open;endSize=8;strokeColor=#ff0000;entryX=0.5;entryY=0;entryDx=0;entryDy=0;" edge="1" parent="1" source="lakhA8L7aZ9W4AZ5UJp5-49" target="lakhA8L7aZ9W4AZ5UJp5-51">
          <mxGeometry relative="1" as="geometry">
            <mxPoint x="430" y="1180" as="targetPoint"/>
          </mxGeometry>
        </mxCell>
        <mxCell id="lakhA8L7aZ9W4AZ5UJp5-51" value="" style="ellipse;html=1;shape=endState;fillColor=#000000;strokeColor=#ff0000;" vertex="1" parent="1">
          <mxGeometry x="415" y="1200" width="30" height="30" as="geometry"/>
        </mxCell>
        <mxCell id="lakhA8L7aZ9W4AZ5UJp5-52" value="" style="edgeStyle=orthogonalEdgeStyle;html=1;verticalAlign=bottom;endArrow=open;endSize=8;strokeColor=#ff0000;" edge="1" parent="1">
          <mxGeometry relative="1" as="geometry">
            <mxPoint x="199" y="1100" as="targetPoint"/>
            <mxPoint x="199.5" y="1065" as="sourcePoint"/>
            <Array as="points">
              <mxPoint x="199.5" y="1025"/>
              <mxPoint x="199.5" y="1025"/>
            </Array>
          </mxGeometry>
        </mxCell>
        <mxCell id="lakhA8L7aZ9W4AZ5UJp5-53" value="" style="edgeStyle=orthogonalEdgeStyle;html=1;verticalAlign=bottom;endArrow=open;endSize=8;strokeColor=#ff0000;exitX=1;exitY=0.5;exitDx=0;exitDy=0;" edge="1" parent="1" source="lakhA8L7aZ9W4AZ5UJp5-46">
          <mxGeometry relative="1" as="geometry">
            <mxPoint x="780" y="1010" as="targetPoint"/>
            <mxPoint x="724.8333333333335" y="1010.3333333333335" as="sourcePoint"/>
            <Array as="points">
              <mxPoint x="710" y="1010"/>
              <mxPoint x="710" y="1010"/>
            </Array>
          </mxGeometry>
        </mxCell>
        <mxCell id="lakhA8L7aZ9W4AZ5UJp5-54" value="Criar uma nova conta" style="text;html=1;resizable=0;points=[];autosize=1;align=left;verticalAlign=top;spacingTop=-4;" vertex="1" parent="1">
          <mxGeometry x="135" y="1050" width="130" height="20" as="geometry"/>
        </mxCell>
        <mxCell id="lakhA8L7aZ9W4AZ5UJp5-55" value="&lt;font style=&quot;font-size: 11px&quot;&gt;entrar com login e senha&lt;/font&gt;" style="text;html=1;resizable=0;points=[];autosize=1;align=left;verticalAlign=top;spacingTop=-4;" vertex="1" parent="1">
          <mxGeometry x="260" y="990" width="140" height="20" as="geometry"/>
        </mxCell>
        <mxCell id="lakhA8L7aZ9W4AZ5UJp5-56" value="Dados corretos" style="rhombus;whiteSpace=wrap;html=1;fillColor=#ffffc0;strokeColor=#ff0000;" vertex="1" parent="1">
          <mxGeometry x="160" y="1100" width="80" height="40" as="geometry"/>
        </mxCell>
        <mxCell id="lakhA8L7aZ9W4AZ5UJp5-57" value="no" style="edgeStyle=orthogonalEdgeStyle;html=1;align=left;verticalAlign=bottom;endArrow=open;endSize=8;strokeColor=#ff0000;entryX=0.5;entryY=1;entryDx=0;entryDy=0;" edge="1" parent="1" source="lakhA8L7aZ9W4AZ5UJp5-56" target="lakhA8L7aZ9W4AZ5UJp5-56">
          <mxGeometry x="-0.75" relative="1" as="geometry">
            <mxPoint x="200" y="1170" as="targetPoint"/>
            <Array as="points">
              <mxPoint x="130" y="1120"/>
              <mxPoint x="130" y="1160"/>
              <mxPoint x="200" y="1160"/>
            </Array>
            <mxPoint as="offset"/>
          </mxGeometry>
        </mxCell>
        <mxCell id="lakhA8L7aZ9W4AZ5UJp5-58" value="yes" style="edgeStyle=orthogonalEdgeStyle;html=1;align=left;verticalAlign=top;endArrow=open;endSize=8;strokeColor=#ff0000;entryX=0;entryY=0.5;entryDx=0;entryDy=0;" edge="1" parent="1" source="lakhA8L7aZ9W4AZ5UJp5-56" target="lakhA8L7aZ9W4AZ5UJp5-49">
          <mxGeometry x="-1" relative="1" as="geometry">
            <mxPoint x="200" y="1200" as="targetPoint"/>
          </mxGeometry>
        </mxCell>
        <mxCell id="lakhA8L7aZ9W4AZ5UJp5-59" value="Esqueceu a senha" style="text;html=1;resizable=0;points=[];autosize=1;align=left;verticalAlign=top;spacingTop=-4;" vertex="1" parent="1">
          <mxGeometry x="640" y="990" width="110" height="20" as="geometry"/>
        </mxCell>
        <mxCell id="lakhA8L7aZ9W4AZ5UJp5-60" value="Criar uma nova senha" style="rounded=1;whiteSpace=wrap;html=1;arcSize=40;fontColor=#000000;fillColor=#ffffc0;strokeColor=#ff0000;" vertex="1" parent="1">
          <mxGeometry x="780" y="990" width="120" height="40" as="geometry"/>
        </mxCell>
        <mxCell id="lakhA8L7aZ9W4AZ5UJp5-61" value="" style="edgeStyle=orthogonalEdgeStyle;html=1;verticalAlign=bottom;endArrow=open;endSize=8;strokeColor=#ff0000;entryX=0.25;entryY=0;entryDx=0;entryDy=0;" edge="1" parent="1" source="lakhA8L7aZ9W4AZ5UJp5-60" target="lakhA8L7aZ9W4AZ5UJp5-41">
          <mxGeometry relative="1" as="geometry">
            <mxPoint x="170" y="890" as="targetPoint"/>
            <Array as="points">
              <mxPoint x="840" y="920"/>
              <mxPoint x="170" y="920"/>
            </Array>
          </mxGeometry>
        </mxCell>
        <mxCell id="lakhA8L7aZ9W4AZ5UJp5-62" value="Usar a nova senha para ter acesso&amp;nbsp;" style="text;html=1;resizable=0;points=[];autosize=1;align=left;verticalAlign=top;spacingTop=-4;" vertex="1" parent="1">
          <mxGeometry x="400" y="900" width="210" height="20" as="geometry"/>
        </mxCell>
        <mxCell id="lakhA8L7aZ9W4AZ5UJp5-63" value="Usuário" style="text;html=1;resizable=0;points=[];autosize=1;align=left;verticalAlign=top;spacingTop=-4;" vertex="1" parent="1">
          <mxGeometry x="30" y="980" width="60" height="20" as="geometry"/>
        </mxCell>
      </root>
    </mxGraphModel>
  </diagram>
</mxfile>
